PathFileType	4	(X/Y/Z)	Patient4_TMGait_0pt6_02_right_40.trc.trc
DataRate	CameraRate	NumFrames	NumMarkers	Units	OrigDataRate	OrigDataStartFrame	OrigNumFrames
81.871345029240	81.871345029240	4	33	mm	81.871345029240	71	       141
Frame#	Time	Sacral			L.Shoulder			Chest			R.Shoulder			Neck			R.ASIS			L.ASIS			R.Thigh.Superior			R.Thigh.Lateral			R.Thigh.Inferior			R.Patella			L.Thigh.Superior			L.Thigh.Lateral			L.Thigh.Inferior			L.Patella			L.Shank.Superior			L.Shank.Lateral			L.Shank.Inferior			R.Shank.Superior			R.Shank.Lateral			R.Shank.Inferior			R.Heel			R.Midfoot.Superior			R.Midfoot.Lateral			R.Toe			L.Heel			L.Midfoot.Lateral			L.Midfoot.Superior			L.Toe			L.Elbow			L.Wrist			R.Elbow			R.Wrist			
		X1	Y1	Z1	X2	Y2	Z2	X3	Y3	Z3	X4	Y4	Z4	X5	Y5	Z5	X6	Y6	Z6	X7	Y7	Z7	X8	Y8	Z8	X9	Y9	Z9	X10	Y10	Z10	X11	Y11	Z11	X12	Y12	Z12	X13	Y13	Z13	X14	Y14	Z14	X15	Y15	Z15	X16	Y16	Z16	X17	Y17	Z17	X18	Y18	Z18	X19	Y19	Z19	X20	Y20	Z20	X21	Y21	Z21	X22	Y22	Z22	X23	Y23	Z23	X24	Y24	Z24	X25	Y25	Z25	X26	Y26	Z26	X27	Y27	Z27	X28	Y28	Z28	X29	Y29	Z29	X30	Y30	Z30	X31	Y31	Z31	X32	Y32	Z32	X33	Y33	Z33	

71	49.085000000000	823.604048508285	1008.932025553655	560.631178883270	1008.986840648644	1423.958035680887	365.169303752886	1128.391607660819	1339.013738907580	505.585999586790	1081.648724261487	1420.357453070779	687.756842295451	1039.961555676397	1480.009215126970	514.244620281763	1052.461060914269	924.490177353841	653.783088995208	1015.105699482127	948.173751126383	380.403339806201	1040.660349974423	712.395943216133	627.827458983639	936.936275262956	625.362388240611	697.423513829333	989.781039129266	555.391631501273	614.840165556123	966.891760097852	471.670982106608	621.528919333268	1088.106930890646	768.601670675190	418.293855679318	1040.660607510745	642.149041285563	338.485319838287	1138.871563722689	581.593051570687	405.323127592548	1163.527632420060	515.195665131560	402.064697650587	1147.308454540953	442.434695220895	388.221726785055	1082.171571981935	313.877343262390	333.711721462569	1166.119986462795	214.087060958395	391.836963221870	925.122500784533	390.097992505484	632.912480047596	840.308136078482	301.928456342627	700.817335582861	860.036248454590	200.234732862643	638.181795256121	702.668552366081	46.388616881682	617.573765376725	874.890334385201	96.466714896059	649.607096437420	786.232558227752	37.885298952850	690.363060547545	994.631465135760	40.329427377697	679.079644338441	1078.741459872905	38.280533195763	423.531616595911	1156.335173930242	42.694978092626	347.279334249474	1227.219032263927	116.529539589993	373.554514925208	1361.468308527559	83.932048050093	354.023759393156	855.376619974893	1099.672650460580	274.423200643514	841.666599290172	838.128843752471	276.768943637855	1208.610463059260	1103.864876533143	775.160816778110	1364.390264168638	1224.539136026830	627.784039513595	
72	49.097214285714	825.609570815722	1006.924726972639	557.729512276987	1009.218205619610	1422.622001176927	362.534242132654	1128.777192991255	1338.338452043632	503.122831457989	1081.150974544877	1419.291738700225	685.372337957643	1039.547066289979	1478.881079095008	511.683952147867	1054.719320044452	923.018006223327	651.412850964394	1017.565386656179	946.499061987954	378.249927092888	1041.743608766489	710.724713966292	625.814536388933	937.024086979027	624.329811079677	695.510031977631	989.368558620442	553.741981869608	613.250131094652	965.482767427292	469.756187151604	619.804722192148	1090.327804100276	765.647259334279	415.269661556666	1039.933128402752	639.069126849817	337.349051878492	1138.885259534248	578.534705706855	403.187763293609	1162.051004175454	511.457530331874	400.874499496610	1145.615743927942	438.740310994412	387.369259895314	1079.054433926905	310.590078435880	333.889537308396	1162.074360797445	210.364327524993	392.308816669461	922.390791195572	388.728358867940	631.487087000573	836.623379466272	302.075719234081	700.090265125263	854.566396066265	199.934726076837	637.721778348020	695.421246196564	47.440776610626	617.844180807559	867.906222219143	96.622659263490	649.682242513778	779.038809184515	38.394649646733	690.510005927813	987.393383966976	39.945460359679	679.162129769535	1071.748990727488	37.385211712787	424.909297281266	1149.078278323810	40.210203890492	348.176456614059	1222.029477520712	111.690068440653	374.688240009515	1355.440991538714	75.384496141019	354.441963361392	855.802980325500	1098.377489834061	272.054324568177	841.909718316113	836.745154885054	275.152443577426	1210.801221881358	1103.621598999041	772.131057736314	1364.560571119710	1226.088173243686	623.941474189978	
73	49.109428571429	827.550239704400	1005.133065013215	554.794924846024	1009.575969689684	1421.410502646434	359.757517844062	1129.257258418463	1337.770407903523	500.554850479838	1080.772531598890	1418.355060700585	682.896089250868	1039.294277894028	1477.918144925804	508.966660303136	1056.965179948295	921.697402274653	648.899062033881	1019.916728969491	945.129600805332	375.981069175409	1043.104830265826	709.250851884307	623.705432959193	937.489073991472	623.431613030289	693.470279690496	989.467912163643	552.238367984773	611.563433087020	964.677296185745	467.835478691587	618.021742818885	1092.688610864204	763.283740902107	412.085630426375	1039.705548881643	636.573604487677	336.052102670810	1139.471231132471	576.154912084144	400.954378645383	1161.231710417298	508.378337567068	399.644317800311	1144.503409945289	435.593545732579	386.529442569291	1076.503245687895	308.006092771585	333.675338202229	1158.080722555864	207.123117725683	392.630512805172	920.136407090777	387.462670143808	630.013730121903	833.306000908536	302.455074749424	699.329678278272	849.362175346470	199.853187654835	637.283450447778	688.257776912597	48.988656272743	618.180889814659	861.101607266782	96.877524840450	649.797731949813	771.928647698028	39.159833640332	690.688090373007	980.208855896871	39.535359696207	679.233802049070	1064.338627058867	36.915261023098	425.845193166389	1141.525154962789	38.262424755681	348.756295089707	1216.539010122449	107.361423144663	375.707982582244	1349.125605878246	67.328555950149	354.898565775243	856.855758790893	1096.870138662587	269.590841551045	842.949567791503	835.155204052192	273.236367486499	1212.062756176468	1102.957150326205	769.338027920480	1364.733006911849	1226.334649776271	620.460594213393	
74	49.121642857143	829.397955467586	1003.661680152577	551.854725610890	1010.057972373756	1420.424946944462	356.881465265235	1129.841949265393	1337.371697413311	497.896012428110	1080.586602366806	1417.620583097161	680.340440037593	1039.245979571931	1477.199038393482	506.133888368799	1059.139940589675	920.622456152440	646.226469143508	1022.105075734175	944.169156289009	373.549921290828	1044.691248681630	708.065635484413	621.481131629322	938.342069238096	622.727054794817	691.310943707196	990.117146980407	550.956605875584	609.782602688357	964.567026192361	465.954785648761	616.243300723883	1095.155275430622	761.675919736799	408.851525238337	1040.099692004669	634.806364082468	334.591554873892	1140.612744154016	574.533718334066	398.682789547001	1161.083643147294	506.056811453601	398.392222001022	1143.984294950992	433.092049645680	385.720961303607	1074.585021371164	306.213553914749	333.064584485064	1154.215443417877	204.480621886870	392.806458762942	918.430748942815	386.363590848062	628.540209655844	830.394579449406	303.133880808500	698.538918443791	844.483033012498	200.056255292886	636.884767370278	681.217525017453	51.146956919958	618.571504281843	854.530005144789	97.249148897116	649.961660794689	764.921946644635	40.241169154566	690.886053061564	973.080134166338	39.121175664352	679.285909151919	1056.775216708611	36.807846176986	426.365142261722	1133.925047171523	36.885373577283	349.052240482585	1210.844658933718	103.753114073048	376.575678146540	1342.667986224230	60.243433165546	355.358159432120	858.518915294199	1095.272226421440	267.045054847840	844.819216000409	833.474035695461	271.002896094452	1212.380003132688	1101.893674950527	766.774676583192	1364.986963139325	1225.216043749291	617.343113800804	
